<svg width="125" height="138" viewBox="0 0 125 138" fill="none" xmlns="http://www.w3.org/2000/svg">
<path d="M58.761 130.409C91.214 130.409 117.522 104.101 117.522 71.6482C117.522 39.1952 91.214 12.8872 58.761 12.8872C26.308 12.8872 0 39.1952 0 71.6482C0 104.101 26.308 130.409 58.761 130.409Z" fill="#753335"/>
<path fill-rule="evenodd" clip-rule="evenodd" d="M34.2769 120.616C36.7249 118.168 34.2769 123.064 36.7249 118.168L34.2769 120.616ZM34.2769 120.616L26.9319 127.961C26.9319 130.41 24.4829 135.306 19.5869 132.858C17.1379 132.858 26.9319 127.961 29.3799 118.168C26.9319 120.616 19.5869 130.41 14.6899 130.41C12.2409 132.858 9.79289 130.41 14.6899 125.513L26.9319 115.719H29.3799C29.3799 115.719 29.3799 115.719 29.3799 113.271C26.9319 115.719 22.0349 118.168 17.1379 120.616C14.6899 123.064 7.34488 130.41 4.89588 125.513C2.44788 120.616 12.2409 118.168 17.1379 118.168C22.0349 115.719 24.4829 113.271 26.9319 110.823C24.4829 110.823 7.34488 120.616 4.89588 118.168C4.89588 115.719 4.89592 113.271 7.34492 113.271C9.79292 113.271 12.2409 113.271 14.6899 110.823C17.1379 110.823 22.0349 108.374 24.4829 108.374C22.0349 108.374 9.79288 110.823 4.89588 110.823C2.44788 108.374 4.89592 105.926 9.79292 105.926C24.4829 103.477 29.3799 105.926 41.6219 93.6842C44.0699 93.6842 44.0699 93.6842 46.5189 91.2362C46.5189 91.2362 46.5189 91.2362 46.5189 88.7872C44.0699 86.3392 44.0699 88.7872 39.1739 88.7872C39.1739 88.7872 39.1739 91.2362 36.7249 88.7872L41.6219 83.8902C39.1739 81.4422 36.7249 83.8902 31.8279 83.8902C31.8279 81.4422 34.2769 78.9942 36.7249 76.5452C31.8279 74.0972 29.3799 78.9942 24.4829 76.5452C24.4829 74.0972 26.9319 74.0972 26.9319 71.6482C29.3799 71.6482 29.3799 71.6482 29.3799 69.2002H19.5869C22.0349 64.3032 24.4829 64.3032 26.9319 61.8552C22.0349 59.4072 17.1379 59.4072 14.6899 59.4072C17.1379 54.5102 19.5869 56.9582 22.0349 52.0612C19.5869 52.0612 14.6899 52.0612 12.2409 49.6132C12.2409 47.1652 12.2409 47.1652 14.6899 47.1652C17.1379 47.1652 17.1379 44.7162 17.1379 44.7162C19.5869 44.7162 19.5869 44.7162 19.5869 44.7162C14.6899 42.2682 9.79292 42.2682 7.34492 37.3712C9.79292 37.3712 14.6899 37.3712 14.6899 34.9232C12.2409 32.4742 7.34488 32.4742 4.89588 27.5782H12.2409C7.34492 20.2322 4.89588 22.6812 4.89588 12.8872L36.7249 32.4742C56.3119 42.2682 53.8639 39.8202 63.6569 59.4072C71.0029 76.5452 78.3479 78.9942 93.0379 66.7522C97.9349 64.3032 102.831 59.4072 110.177 61.8552C119.97 64.3032 117.522 69.2002 117.522 71.6482C119.97 74.0972 119.97 74.0972 119.97 76.5452C107.728 74.0972 102.831 83.8902 97.9349 91.2362C83.2439 120.616 63.6569 103.477 44.0699 113.271C31.8279 120.616 36.7249 135.306 26.9319 135.306C26.9319 130.41 34.2769 125.513 34.2769 120.616Z" fill="white"/>
<path fill-rule="evenodd" clip-rule="evenodd" d="M34.2764 120.617C34.2764 125.514 26.9314 130.411 26.9314 135.307C36.7244 135.307 31.8284 120.617 44.0694 113.272C63.6564 103.478 83.2444 120.617 97.9344 91.2355C102.831 83.8905 107.727 74.0975 119.969 76.5455C119.969 74.0975 119.969 74.0975 117.521 71.6485C117.521 69.2005 119.969 64.3035 110.176 61.8555C102.831 59.4065 97.9344 64.3035 93.0374 66.7525C78.3474 78.9935 71.0024 76.5455 63.6564 59.4065C53.8634 39.8195 56.3114 42.2685 36.7244 32.4745L4.89537 12.8875C4.89537 22.6815 7.34441 20.2325 12.2404 27.5775H4.89537C7.34437 32.4745 12.2404 32.4745 14.6894 34.9235C14.6894 37.3715 9.79241 37.3715 7.34441 37.3715C9.79241 42.2685 14.6894 42.2685 19.5864 44.7165C19.5864 44.7165 19.5864 44.7165 17.1374 44.7165C17.1374 44.7165 17.1374 47.1655 14.6894 47.1655C12.2404 47.1655 12.2404 47.1655 12.2404 49.6135C14.6894 52.0615 19.5864 52.0615 22.0344 52.0615C19.5864 56.9585 17.1374 54.5105 14.6894 59.4065C17.1374 59.4065 22.0344 59.4065 26.9314 61.8555C24.4824 64.3035 22.0344 64.3035 19.5864 69.2005H29.3794C29.3794 71.6485 29.3794 71.6485 26.9314 71.6485C26.9314 74.0975 24.4824 74.0975 24.4824 76.5455C29.3794 78.9935 31.8284 74.0975 36.7244 76.5455C34.2764 78.9935 31.8284 81.4425 31.8284 83.8905C36.7244 83.8905 39.1734 81.4425 41.6214 83.8905L36.7244 88.7875C39.1734 91.2355 39.1734 88.7875 39.1734 88.7875C44.0694 88.7875 44.0694 86.3395 46.5184 88.7875C46.5184 91.2355 46.5184 91.2355 46.5184 91.2355C44.0694 93.6845 44.0694 93.6845 41.6214 93.6845C29.3794 105.927 24.4824 103.478 9.79241 105.927C4.89541 105.927 2.44737 108.375 4.89537 110.823C9.79237 110.823 22.0344 108.375 24.4824 108.375C22.0344 108.375 17.1374 110.823 14.6894 110.823C12.2404 113.272 9.79241 113.272 7.34441 113.272C4.89541 113.272 4.89537 115.72 4.89537 118.169C7.34437 120.617 24.4824 110.823 26.9314 110.823C24.4824 113.272 22.0344 115.72 17.1374 118.169C12.2404 118.169 2.44737 120.617 4.89537 125.514C7.34437 130.411 14.6894 123.065 17.1374 120.617C22.0344 118.169 26.9314 115.72 29.3794 113.272C29.3794 115.72 29.3794 115.72 29.3794 115.72H26.9314L14.6894 125.514C9.79238 130.411 12.2404 132.859 14.6894 130.411C19.5864 130.411 26.9314 120.617 29.3794 118.169C26.9314 127.962 17.1374 132.859 19.5864 132.859C24.4824 135.307 26.9314 130.411 26.9314 127.962L34.2764 120.617ZM41.6214 12.8875C41.6214 15.3365 41.6214 15.3365 41.6214 15.3365L34.2764 12.8875C34.2764 20.2325 36.7244 20.2325 39.1734 22.6815H29.3794C31.8284 30.0265 36.7244 30.0265 44.0694 34.9235C48.9664 37.3715 53.8634 39.8195 58.7604 44.7165C68.5534 56.9585 66.1054 71.6485 78.3474 74.0975C75.8984 71.6485 75.8984 71.6485 75.8984 69.2005C73.4504 66.7525 73.4504 64.3035 73.4504 61.8555C71.0024 47.1655 78.3474 39.8195 66.1054 30.0265C63.6564 25.1295 41.6214 3.09451 36.7244 0.645508C36.7244 7.99051 36.7244 10.4395 41.6214 12.8875ZM78.3474 71.6485C90.5894 71.6485 93.0374 59.4065 105.279 59.4065C119.969 56.9585 119.969 69.2005 122.418 71.6485C122.418 74.0975 122.418 76.5455 124.866 78.9945C119.969 78.9945 117.521 76.5455 112.624 78.9945C97.9344 88.7875 102.831 108.375 75.8984 113.272C58.7604 113.272 46.5184 108.375 36.7244 130.411C34.2764 132.859 34.2764 137.756 29.3794 137.756C26.9314 137.756 26.9314 135.307 24.4824 135.307C22.0344 137.756 22.0344 137.756 19.5864 135.307C14.6894 132.859 19.5864 135.307 14.6894 135.307C7.34438 132.859 12.2404 130.411 4.89537 127.962C-0.000626802 125.514 2.44737 120.617 2.44737 120.617C2.44737 118.169 2.44737 118.169 2.44737 118.169C-0.000625014 110.823 2.44737 113.272 2.44737 110.823C2.44737 108.375 -0.000625014 108.375 2.44737 105.927C7.34437 101.03 31.8284 105.927 41.6214 91.2355C39.1734 91.2355 36.7244 91.2355 34.2764 91.2355C31.8284 88.7875 34.2764 86.3395 36.7244 86.3395C31.8284 86.3395 29.3794 83.8905 29.3794 81.4425C29.3794 78.9945 29.3794 81.4425 29.3794 78.9945C24.4824 78.9945 22.0344 76.5455 22.0344 74.0975L24.4824 71.6485C19.5864 69.2005 19.5864 69.2005 17.1374 66.7525C17.1374 64.3035 19.5864 64.3035 19.5864 61.8555C17.1374 59.4065 14.6894 61.8555 12.2404 56.9585L17.1374 52.0615C12.2404 49.6135 9.79241 49.6135 7.34441 47.1655L14.6894 44.7165C9.79238 42.2685 7.34437 39.8195 4.89537 34.9235H7.34441C9.79241 34.9235 9.79241 34.9235 9.79241 34.9235C7.34441 32.4745 2.44737 30.0265 2.44737 25.1295H7.34441C4.89541 22.6815 -0.000625014 17.7845 2.44737 10.4395C4.89537 7.99051 22.0344 22.6815 29.3794 25.1295L26.9314 20.2325H34.2764C31.8284 17.7845 29.3794 17.7845 31.8284 10.4395L36.7244 12.8875C36.7244 10.4395 31.8284 5.54251 34.2764 0.645508C36.7244 -4.25049 58.7604 20.2325 61.2084 22.6815C66.1054 27.5775 73.4504 32.4745 75.8984 42.2685C78.3474 52.0615 73.4504 61.8555 78.3474 71.6485Z" fill="#753335"/>
<path fill-rule="evenodd" clip-rule="evenodd" d="M41.6229 15.3355C41.6229 12.8875 41.6229 15.3355 41.6229 12.8875C36.7259 10.4395 36.7259 7.99051 36.7259 0.645508C41.6229 3.09451 63.6589 25.1295 66.1069 30.0265C78.3489 39.8195 71.0038 47.1645 73.4518 61.8555C73.4518 64.3035 73.4519 66.7515 75.9009 69.2005C75.9009 71.6485 75.9009 71.6485 78.3489 74.0975C66.1069 71.6485 68.5549 56.9585 58.7619 44.7165C53.8649 39.8195 48.9679 37.3715 44.0719 34.9225C36.7259 30.0265 31.8299 30.0265 29.3809 22.6815H39.1749C36.7259 20.2325 34.2779 20.2325 34.2779 12.8875L41.6229 15.3355Z" fill="white"/>
<path fill-rule="evenodd" clip-rule="evenodd" d="M34.2773 120.616L36.7253 118.168C34.2773 123.064 36.7253 118.168 34.2773 120.616Z" fill="#753335"/>
</svg>
